<?xml version="1.0" encoding="UTF-8"?>
<svg xmlns="http://www.w3.org/2000/svg" baseProfile="tiny" version="1.2" viewBox="0 0 439.2 114.27">
  <!-- Generator: Adobe Illustrator 28.6.0, SVG Export Plug-In . SVG Version: 1.2.0 Build 709)  -->
  <g>
    <g id="Layer_1">
      <g>
        <path d="M439.2,85.92H0C0,57.28,0,28.64,0,0c146.4,0,292.8,0,439.2,0,0,28.64,0,57.28,0,85.92ZM46.03,42.89c0,12.32.03,24.65-.03,36.97,0,1.74.14,2.67,2.31,2.86,4.74.4,9.43,1.36,14.17,1.81,10.93,1.04,21.63-.23,31.96-3.94,9.85-3.54,17.06-10.02,21.25-19.69,3.45-7.97,4.41-16.28,3.72-24.87-.92-11.55-5.51-21.05-15.33-27.72C95.22,2.28,85.09.94,74.74.5c-8.81-.38-17.43,1.22-26.09,2.6-2.37.38-2.69,1.23-2.67,3.3.09,12.16.05,24.33.05,36.49ZM130.31,43.91c.24,2.01.45,5.42,1.1,8.75,2.03,10.41,6.92,19.17,16.02,25.03,8.2,5.28,17.3,6.67,26.93,5.43,13.54-1.75,23.64-8.33,29.39-20.81,4.65-10.1,5.41-20.75,3.22-31.54-1.72-8.48-5.53-15.94-12.27-21.68-6-5.11-13.03-7.69-20.83-8.36-11.73-1.01-22.3,1.77-30.95,9.99-9.06,8.62-12.29,19.66-12.62,33.19ZM238.3,82.08c0-8.27-.01-16.37.02-24.47,0-.76,0-1.7.41-2.24,2.01-2.61,4.16-5.11,6.35-7.77,6.42,11.17,12.7,22.06,18.92,32.99.67,1.18,1.38,1.64,2.75,1.6,3.75-.1,7.51-.03,11.27-.03h8.13c-9.53-15.66-18.81-30.89-28.08-46.11,8.86-11.36,17.62-22.59,26.64-34.15-5.46,0-10.4.07-15.33-.02-4.7-.09-8.35,1.81-10.93,5.61-6.41,9.45-12.73,18.95-19.09,28.43-.26.38-.56.74-1.06,1.38,0-1.93,0-3.44,0-4.95,0-8.43.02-16.87,0-25.3-.01-3.62-1.53-5.15-4.99-5.15-2.56,0-5.11,0-7.67,0-4.24,0-5.55,1.29-5.55,5.49,0,24.1,0,48.21,0,72.31v2.38h18.22ZM341.37,28.04c0,6.84.09,13.68-.04,20.52-.06,2.91-.37,5.86-.96,8.71-1.54,7.43-6.45,11.66-13.41,11.88-6.77.21-11.88-3.7-13.8-11.02-.83-3.18-1.35-6.54-1.38-9.82-.15-14.4-.06-28.79-.07-43.19,0-2.66-.58-3.21-3.23-3.22-3.36-.02-6.71,0-10.07,0-4.57,0-4.76.18-4.76,4.63,0,13.36-.1,26.73.06,40.09.05,4.41.37,8.89,1.23,13.21,2.3,11.53,8.69,19.67,20.61,22.54,7.64,1.84,15.29,1.64,22.86-.56,8.38-2.44,14.25-7.7,17.75-15.6,2.24-5.05,3.29-10.45,3.37-15.88.22-15.19.09-30.38.08-45.58,0-1.92-1-2.87-2.99-2.86-3.91.04-7.83,0-11.75.01-2.77,0-3.5.72-3.5,3.48,0,7.56,0,15.11,0,22.67ZM439,80.67c-.41-.64-.56-.9-.73-1.15-8.47-12.25-16.92-24.51-25.45-36.72-.92-1.32-.96-2.16-.02-3.52,4.79-6.98,9.45-14.05,14.15-21.1,3.53-5.31,7.05-10.64,10.78-16.28-5.06,0-9.74.02-14.42,0-4.29-.03-7.22,2.04-9.03,5.78-1.34,2.76-2.62,5.56-3.85,8.38-1.97,4.53-3.88,9.08-5.92,13.87-.35-.72-.58-1.2-.81-1.68-3.36-7.2-6.71-14.41-10.1-21.61-1.23-2.61-3.28-4.53-6.17-4.65-5.54-.23-11.11-.07-17.03-.07.43.67.66,1.06.92,1.43,8.41,12.1,16.82,24.19,25.24,36.29.73,1.05,1.4,1.86.36,3.32-6.99,9.81-13.85,19.71-20.75,29.59-2.18,3.12-4.32,6.28-6.62,9.63,5.52,0,10.65-.26,15.74.09,3.79.26,5.64-.9,7.11-4.54,3.31-8.21,7.28-16.17,11.02-24.31.22.33.46.61.62.93,4.33,8.21,8.62,16.44,13.01,24.62.4.75,1.42,1.65,2.16,1.66,6.45.13,12.91.08,19.79.08ZM34.91,67.03c-2.87-1.95-25.11-1.85-29.37.02,5.17,2.09,26.55,2.15,29.37-.02ZM.83,16.63c3.28,1.44,19.55,1.49,23.29.06-4.6-1.75-17.98-1.79-23.29-.06ZM37.43,8.07c-9.28-2.38-18.55-2.56-27.82,0h27.82ZM19.59,76.77c.08.22.16.43.24.65,5.38,0,10.75.02,16.13-.04.42,0,.84-.64,1.26-.98-.41-.29-.82-.83-1.24-.83-4.84-.1-9.68-.17-14.51-.09-.63,0-1.25.85-1.88,1.31Z" fill="#fdfdfd"/>
        <path d="M46.03,42.89c0-12.16.05-24.33-.05-36.49-.02-2.07.31-2.92,2.67-3.3C57.31,1.72,65.93.12,74.74.5c10.35.45,20.48,1.79,29.35,7.82,9.82,6.67,14.4,16.17,15.33,27.72.69,8.59-.27,16.9-3.72,24.87-4.19,9.67-11.4,16.16-21.25,19.69-10.33,3.71-21.03,4.97-31.96,3.94-4.74-.45-9.43-1.41-14.17-1.81-2.17-.18-2.32-1.12-2.31-2.86.06-12.32.03-24.65.03-36.97ZM99.79,40.14c-.12-1.16-.2-3.47-.61-5.72-1.01-5.54-3.36-10.35-7.86-14-4.94-4.01-10.76-5.35-16.91-5.55-5.57-.19-9.55,3.47-9.6,8.97-.11,13.11-.09,26.22,0,39.34.03,4.47,2.86,7.04,7.32,6.97,2.22-.03,4.48-.11,6.65-.51,5.96-1.09,11.15-3.6,15.01-8.48,4.63-5.86,5.87-12.68,6-21.02Z" fill="#3abdde"/>
        <path d="M130.31,43.91c.33-13.53,3.55-24.57,12.62-33.19C151.57,2.5,162.14-.28,173.88.73c7.8.67,14.83,3.24,20.83,8.36,6.73,5.74,10.55,13.2,12.27,21.68,2.18,10.79,1.43,21.44-3.22,31.54-5.75,12.48-15.85,19.07-29.39,20.81-9.62,1.24-18.73-.15-26.93-5.43-9.11-5.87-13.99-14.62-16.02-25.03-.65-3.33-.86-6.74-1.1-8.75ZM149.5,44.56c.51,2.36,1.06,7.13,2.62,11.53,2.64,7.45,7.85,12.49,16.16,13.01,8.07.5,13.56-3.7,17.08-10.63,2.21-4.36,3.1-9.1,3.37-13.94.41-7.39-.64-14.52-4.63-20.94-7.32-11.77-22.71-11.65-29.93.2-3.44,5.65-4.4,11.93-4.66,20.77Z" fill="#050505"/>
        <path d="M238.3,82.08h-18.22v-2.38c0-24.1,0-48.21,0-72.31,0-4.2,1.31-5.49,5.55-5.49,2.56,0,5.11,0,7.67,0,3.47,0,4.98,1.54,4.99,5.15.02,8.43,0,16.87,0,25.3,0,1.51,0,3.02,0,4.95.49-.65.8-1,1.06-1.38,6.36-9.48,12.68-18.98,19.09-28.43,2.58-3.81,6.22-5.7,10.93-5.61,4.93.09,9.87.02,15.33.02-9.02,11.56-17.78,22.79-26.64,34.15,9.27,15.23,18.54,30.46,28.08,46.11h-8.13c-3.76,0-7.51-.06-11.27.03-1.37.04-2.08-.42-2.75-1.6-6.22-10.93-12.5-21.82-18.92-32.99-2.19,2.66-4.34,5.16-6.35,7.77-.42.54-.41,1.48-.41,2.24-.03,8.1-.02,16.2-.02,24.47Z" fill="#040403"/>
        <path d="M341.37,28.04c0-7.56,0-15.11,0-22.67,0-2.75.73-3.47,3.5-3.48,3.92,0,7.83.02,11.75-.01,1.99-.02,2.98.94,2.99,2.86.01,15.19.14,30.39-.08,45.58-.08,5.43-1.13,10.83-3.37,15.88-3.5,7.9-9.37,13.17-17.75,15.6-7.58,2.2-15.23,2.4-22.86.56-11.92-2.87-18.31-11-20.61-22.54-.86-4.32-1.18-8.8-1.23-13.21-.15-13.36-.06-26.73-.06-40.09,0-4.46.18-4.63,4.76-4.63,3.36,0,6.71-.01,10.07,0,2.65.01,3.22.57,3.23,3.22.01,14.4-.08,28.8.07,43.19.03,3.28.55,6.64,1.38,9.82,1.92,7.32,7.03,11.23,13.8,11.02,6.96-.22,11.87-4.45,13.41-11.88.59-2.85.9-5.8.96-8.71.14-6.84.04-13.68.04-20.52Z" fill="#060606"/>
        <path d="M439,80.67c-6.88,0-13.33.06-19.79-.08-.75-.02-1.76-.91-2.16-1.66-4.39-8.18-8.69-16.4-13.01-24.62-.17-.32-.4-.6-.62-.93-3.74,8.15-7.71,16.1-11.02,24.31-1.47,3.64-3.32,4.8-7.11,4.54-5.09-.35-10.22-.09-15.74-.09,2.3-3.35,4.44-6.51,6.62-9.63,6.89-9.88,13.76-19.77,20.75-29.59,1.04-1.46.37-2.27-.36-3.32-8.42-12.09-16.83-24.19-25.24-36.29-.26-.37-.49-.76-.92-1.43,5.92,0,11.48-.17,17.03.07,2.89.12,4.94,2.05,6.17,4.65,3.39,7.19,6.73,14.4,10.1,21.61.22.48.46.96.81,1.68,2.04-4.79,3.95-9.34,5.92-13.87,1.23-2.82,2.5-5.61,3.85-8.38,1.81-3.74,4.74-5.8,9.03-5.78,4.68.03,9.36,0,14.42,0-3.73,5.64-7.24,10.97-10.78,16.28-4.69,7.05-9.35,14.12-14.15,21.1-.93,1.36-.9,2.19.02,3.52,8.53,12.21,16.98,24.47,25.45,36.72.17.25.32.51.73,1.15Z" fill="#050505"/>
        <path d="M34.91,67.03c-2.82,2.18-24.2,2.12-29.37.02,4.27-1.88,26.5-1.97,29.37-.02Z" fill="#41bedf"/>
        <path d="M.83,16.63c5.31-1.73,18.69-1.69,23.29.06-3.74,1.42-20.01,1.38-23.29-.06Z" fill="#50c1e0"/>
        <path d="M37.43,8.07H9.6c9.27-2.56,18.55-2.38,27.82,0Z" fill="#43bfdf"/>
        <path d="M19.59,76.77c.62-.46,1.24-1.3,1.88-1.31,4.84-.07,9.68,0,14.51.09.42,0,.83.54,1.24.83-.42.34-.83.98-1.26.98-5.38.07-10.75.04-16.13.04-.08-.22-.16-.43-.24-.65Z" fill="#47bfdf"/>
        <path d="M99.79,40.14c-.12,8.33-1.36,15.16-6,21.02-3.86,4.88-9.05,7.39-15.01,8.48-2.18.4-4.43.48-6.65.51-4.46.07-7.28-2.5-7.32-6.97-.09-13.11-.11-26.22,0-39.34.05-5.5,4.03-9.15,9.6-8.97,6.15.21,11.97,1.55,16.91,5.55,4.5,3.65,6.85,8.46,7.86,14,.41,2.25.49,4.56.61,5.72Z" fill="#fdfeff"/>
        <path d="M149.5,44.56c.26-8.84,1.22-15.12,4.66-20.77,7.22-11.85,22.61-11.97,29.93-.2,3.99,6.42,5.04,13.55,4.63,20.94-.27,4.83-1.15,9.58-3.37,13.94-3.52,6.93-9.01,11.14-17.08,10.63-8.31-.52-13.52-5.55-16.16-13.01-1.56-4.41-2.11-9.17-2.62-11.53Z" fill="#fdfdfd"/>
        <text transform="translate(43.55 109.43)" fill="#231f20" font-family="TimesNewRomanPS-BoldMT, &apos;Times New Roman&apos;" font-size="15.8" font-weight="700" letter-spacing=".83em"><tspan x="0" y="0">ASESORÍA Y GESTIÓN</tspan></text>
      </g>
    </g>
  </g>
</svg>